<svg id="Layer_1" data-name="Layer 1" xmlns="http://www.w3.org/2000/svg" viewBox="0 0 110.36 93.53">
  <defs>
    <style>
      .cls-1 {
        font-size: 4px;
        font-family: MyriadPro-Bold, Myriad Pro;
      }

      .cls-1, .cls-24, .cls-25 {
        fill: #1d1d1b;
      }

      .cls-2 {
        font-weight: 700;
      }

      .cls-3 {
        letter-spacing: 0em;
      }

      .cls-4 {
        letter-spacing: 0em;
      }

      .cls-25, .cls-5 {
        font-family: MyriadPro-Regular, Myriad Pro;
      }

      .cls-6 {
        letter-spacing: 0.01em;
      }

      .cls-7 {
        letter-spacing: 0em;
      }

      .cls-8 {
        letter-spacing: 0.03em;
      }

      .cls-9 {
        letter-spacing: -0.01em;
      }

      .cls-10 {
        letter-spacing: 0em;
      }

      .cls-11 {
        letter-spacing: 0em;
      }

      .cls-12 {
        letter-spacing: -0.01em;
      }

      .cls-13 {
        letter-spacing: 0em;
      }

      .cls-14 {
        letter-spacing: 0em;
      }

      .cls-15 {
        fill: #914694;
      }

      .cls-16 {
        fill: #ca9e67;
      }

      .cls-17 {
        fill: #be1622;
      }

      .cls-18 {
        fill: #f39200;
      }

      .cls-19 {
        fill: #706f6f;
      }

      .cls-20 {
        fill: #009fe3;
      }

      .cls-21 {
        fill: #2fac66;
      }

      .cls-22, .cls-23 {
        fill: none;
        stroke: #1d1d1b;
        stroke-miterlimit: 10;
      }

      .cls-23 {
        stroke-width: 0.75px;
      }

      .cls-25 {
        font-size: 7.06px;
      }
    </style>
  </defs>
  <title>EMA</title>
  <text class="cls-1" transform="translate(0 59.02) scale(1.15 1)"><tspan class="cls-2">E<tspan class="cls-3" x="2.14" y="0">M</tspan><tspan class="cls-4" x="5.51" y="0">A</tspan></tspan><tspan class="cls-5"><tspan x="0" y="4.8">(</tspan><tspan class="cls-6" x="1.14" y="4.8">I</tspan><tspan x="2.13" y="4.8">nsta</tspan><tspan class="cls-7" x="9.19" y="4.8">n</tspan><tspan x="11.39" y="4.8">t</tspan><tspan x="0" y="9.6" xml:space="preserve"> Su</tspan><tspan class="cls-8" x="5.02" y="9.6">r</tspan><tspan class="cls-9" x="6.43" y="9.6">v</tspan><tspan class="cls-10" x="8.32" y="9.6">ey)</tspan></tspan></text>
  <text class="cls-1" transform="translate(1.08 16) scale(1.15 1)"><tspan class="cls-2"><tspan class="cls-11">B</tspan><tspan x="2.43" y="0">aseline</tspan></tspan><tspan class="cls-5"><tspan class="cls-12" x="0" y="4.8">(</tspan><tspan class="cls-13" x="1.09" y="4.8">Q</tspan><tspan x="3.86" y="4.8">ualt</tspan><tspan class="cls-14" x="10.26" y="4.8">r</tspan><tspan x="11.58" y="4.8">ics)</tspan></tspan></text>
  <rect class="cls-15" x="25.5" y="15.98" width="75.8" height="2.6"/>
  <rect class="cls-16" x="25.5" y="18.2" width="75.8" height="2.6"/>
  <rect class="cls-17" x="25.5" y="21.15" width="75.8" height="2.6"/>
  <rect class="cls-18" x="25.5" y="23.36" width="75.8" height="2.6"/>
  <rect class="cls-19" x="25.5" y="8.42" width="75.8" height="2.6"/>
  <rect class="cls-20" x="25.5" y="11.19" width="75.8" height="2.6"/>
  <rect class="cls-21" x="25.5" y="13.4" width="75.8" height="2.6"/>
  <g>
    <rect class="cls-22" x="25.5" y="8.42" width="75.8" height="17.66"/>
    <line class="cls-22" x1="25.5" y1="23.55" x2="101.31" y2="23.55"/>
    <line class="cls-22" x1="25.5" y1="21.03" x2="101.31" y2="21.03"/>
    <line class="cls-22" x1="25.5" y1="18.51" x2="101.31" y2="18.51"/>
    <line class="cls-22" x1="25.5" y1="15.98" x2="101.31" y2="15.98"/>
    <line class="cls-22" x1="25.5" y1="13.46" x2="101.31" y2="13.46"/>
    <line class="cls-22" x1="25.5" y1="10.94" x2="101.31" y2="10.94"/>
    <line class="cls-22" x1="92.88" y1="8.42" x2="92.88" y2="26.07"/>
    <line class="cls-22" x1="84.46" y1="8.42" x2="84.46" y2="26.07"/>
    <line class="cls-22" x1="76.04" y1="8.42" x2="76.04" y2="26.07"/>
    <line class="cls-22" x1="67.62" y1="8.42" x2="67.62" y2="26.07"/>
    <line class="cls-22" x1="59.19" y1="8.42" x2="59.19" y2="26.07"/>
    <line class="cls-22" x1="50.77" y1="8.42" x2="50.77" y2="26.07"/>
    <line class="cls-22" x1="42.35" y1="8.42" x2="42.35" y2="26.07"/>
    <line class="cls-22" x1="33.92" y1="8.42" x2="33.92" y2="26.07"/>
  </g>
  <rect class="cls-15" x="26.45" y="65.04" width="70.18" height="7.22"/>
  <rect class="cls-16" x="26.45" y="72.94" width="70.18" height="7.9"/>
  <rect class="cls-17" x="26.45" y="80.84" width="70.18" height="7.69"/>
  <rect class="cls-18" x="26.45" y="89.1" width="70.18" height="3.83"/>
  <rect class="cls-19" x="26.26" y="40.21" width="70.18" height="3.83"/>
  <rect class="cls-20" x="26.26" y="44.3" width="70.18" height="11.79"/>
  <rect class="cls-21" x="26.26" y="56.31" width="70.18" height="8.28"/>
  <g>
    <rect class="cls-22" x="26.26" y="40.21" width="70.18" height="52.82"/>
    <line class="cls-22" x1="26.26" y1="88.96" x2="96.44" y2="88.96"/>
    <line class="cls-22" x1="26.26" y1="84.9" x2="96.44" y2="84.9"/>
    <line class="cls-22" x1="26.26" y1="80.84" x2="96.44" y2="80.84"/>
    <line class="cls-22" x1="26.26" y1="76.77" x2="96.44" y2="76.77"/>
    <line class="cls-22" x1="26.26" y1="72.71" x2="96.44" y2="72.71"/>
    <line class="cls-22" x1="26.26" y1="68.65" x2="96.44" y2="68.65"/>
    <line class="cls-22" x1="26.26" y1="64.59" x2="96.44" y2="64.59"/>
    <line class="cls-22" x1="26.26" y1="60.52" x2="96.44" y2="60.52"/>
    <line class="cls-22" x1="26.26" y1="56.46" x2="96.44" y2="56.46"/>
    <line class="cls-22" x1="26.26" y1="52.4" x2="96.44" y2="52.4"/>
    <line class="cls-22" x1="26.26" y1="48.34" x2="96.44" y2="48.34"/>
    <line class="cls-22" x1="26.26" y1="44.27" x2="96.44" y2="44.27"/>
    <line class="cls-22" x1="84.74" y1="40.21" x2="84.74" y2="93.03"/>
    <line class="cls-22" x1="73.04" y1="40.21" x2="73.04" y2="93.03"/>
    <line class="cls-22" x1="61.35" y1="40.21" x2="61.35" y2="93.03"/>
    <line class="cls-22" x1="49.65" y1="40.21" x2="49.65" y2="93.03"/>
    <line class="cls-22" x1="37.95" y1="40.21" x2="37.95" y2="93.03"/>
  </g>
  <g>
    <path class="cls-23" d="M107.3,25.47c9.76,0,10.52,36.92-2,41.77" transform="translate(-4.68 -12.98)"/>
    <polygon class="cls-24" points="100.91 53.45 98.72 54.72 101.25 54.72 100.91 53.45"/>
  </g>
  <g>
    <path class="cls-23" d="M107.3,25.47c9.76,0,10.52,32.94-2,37.28" transform="translate(-4.68 -12.98)"/>
    <polygon class="cls-24" points="100.94 48.98 98.72 50.2 101.25 50.26 100.94 48.98"/>
  </g>
  <g>
    <path class="cls-23" d="M107.3,25.47c9.76,0,10.52,29.92-1.95,33.88" transform="translate(-4.68 -12.98)"/>
    <polygon class="cls-24" points="100.96 45.59 98.72 46.76 101.24 46.87 100.96 45.59"/>
  </g>
  <text class="cls-25" transform="translate(27.45 38.31) scale(1.24 1)">ID</text>
  <text class="cls-25" transform="translate(25.26 5.91) scale(1.24 1)">ID</text>
</svg>
