<svg id="Layer_1" data-name="Layer 1" xmlns="http://www.w3.org/2000/svg" viewBox="0 0 137.68 44.5">
  <defs>
    <style>
      .cls-1 {
        fill: #914694;
      }

      .cls-2 {
        fill: #ca9e67;
      }

      .cls-3 {
        fill: #be1622;
      }

      .cls-4 {
        fill: #f39200;
      }

      .cls-5 {
        fill: #706f6f;
      }

      .cls-6 {
        fill: #009fe3;
      }

      .cls-7 {
        fill: #2fac66;
      }

      .cls-10, .cls-8 {
        fill: none;
        stroke: #1d1d1b;
        stroke-miterlimit: 10;
      }

      .cls-9 {
        font-size: 5.57px;
        fill: #1d1d1b;
        font-family: MyriadPro-Regular, Myriad Pro;
      }

      .cls-10 {
        stroke-width: 0.75px;
      }

      .cls-11 {
        letter-spacing: 0em;
      }

      .cls-12 {
        letter-spacing: 0em;
      }

      .cls-13 {
        letter-spacing: -0.03em;
      }

      .cls-14 {
        letter-spacing: 0em;
      }
    </style>
  </defs>
  <title>WideData</title>
  <rect class="cls-1" x="25.05" y="25.79" width="112.13" height="4.68"/>
  <rect class="cls-2" x="25.05" y="29.79" width="112.13" height="4.68"/>
  <rect class="cls-3" x="25.05" y="35.1" width="112.13" height="4.68"/>
  <rect class="cls-4" x="25.05" y="39.1" width="112.13" height="4.68"/>
  <rect class="cls-5" x="25.05" y="12.13" width="112.13" height="4.68"/>
  <rect class="cls-6" x="25.05" y="17.13" width="112.13" height="4.68"/>
  <rect class="cls-7" x="25.05" y="21.13" width="112.13" height="4.68"/>
  <g>
    <rect class="cls-8" x="25.05" y="12.13" width="112.13" height="31.87"/>
    <line class="cls-8" x1="25.05" y1="39.45" x2="137.18" y2="39.45"/>
    <line class="cls-8" x1="25.05" y1="34.89" x2="137.18" y2="34.89"/>
    <line class="cls-8" x1="25.05" y1="30.34" x2="137.18" y2="30.34"/>
    <line class="cls-8" x1="25.05" y1="25.79" x2="137.18" y2="25.79"/>
    <line class="cls-8" x1="25.05" y1="21.23" x2="137.18" y2="21.23"/>
    <line class="cls-8" x1="25.05" y1="16.68" x2="137.18" y2="16.68"/>
    <line class="cls-8" x1="124.72" y1="12.13" x2="124.72" y2="44"/>
    <line class="cls-8" x1="112.26" y1="12.13" x2="112.26" y2="44"/>
    <line class="cls-8" x1="99.8" y1="12.13" x2="99.8" y2="44"/>
    <line class="cls-8" x1="87.34" y1="12.13" x2="87.34" y2="44"/>
    <line class="cls-8" x1="74.88" y1="12.13" x2="74.88" y2="44"/>
    <line class="cls-8" x1="62.43" y1="12.13" x2="62.43" y2="44"/>
    <line class="cls-8" x1="49.97" y1="12.13" x2="49.97" y2="44"/>
    <line class="cls-8" x1="37.51" y1="12.13" x2="37.51" y2="44"/>
  </g>
  <text class="cls-9" transform="translate(0 15.79) scale(0.97 1)">Header</text>
  <path class="cls-10" d="M26.46,55.8s-2,.53-2.11-1.86c-.09-3.1.72-4.81.53-7a9.18,9.18,0,0,0-2.18-4.75,9.28,9.28,0,0,0,2.18-4.77c.19-2.2-.61-3.9-.53-7,.07-2.4,2.11-1.86,2.11-1.86" transform="translate(-4.19 -11.85)"/>
  <text class="cls-9" transform="translate(0 31.66) scale(0.97 1)">D<tspan class="cls-11" x="3.71" y="0">a</tspan><tspan class="cls-12" x="6.37" y="0">ta</tspan></text>
  <path class="cls-10" d="M29.44,21.85s-2.16-2.07,7.65-2c12.72,0,19.7.9,28.71.79a109.94,109.94,0,0,0,19.48-2A111.51,111.51,0,0,0,104.81,21c9,.27,16-.46,28.72-.26,9.82.16,7.61,2.18,7.61,2.18" transform="translate(-4.19 -11.85)"/>
  <text class="cls-9" transform="translate(72 4.66) scale(0.97 1)"><tspan class="cls-13">V</tspan><tspan x="2.92" y="0">a</tspan><tspan class="cls-14" x="5.61" y="0">r</tspan><tspan class="cls-12" x="7.45" y="0">iables</tspan></text>
</svg>
